<?xml version="1.0" standalone="no"?>
<!DOCTYPE svg PUBLIC "-//W3C//DTD SVG 20010904//EN"
 "http://www.w3.org/TR/2001/REC-SVG-20010904/DTD/svg10.dtd">
<svg version="1.0" xmlns="http://www.w3.org/2000/svg"
 width="1024.000000pt" height="1024.000000pt" viewBox="0 0 1024.000000 1024.000000"
 preserveAspectRatio="xMidYMid meet">
<metadata>
Created by potrace 1.16, written by Peter Selinger 2001-2019
</metadata>
<g transform="translate(0.000000,1024.000000) scale(0.100000,-0.100000)"
fill="#000000" stroke="none">
<path d="M5540 9210 c-208 -56 -395 -239 -466 -456 -26 -80 -29 -102 -29 -219
0 -138 16 -208 70 -314 59 -117 182 -240 300 -299 170 -85 412 -94 582 -21 78
33 179 106 242 175 230 252 234 646 8 912 -85 100 -172 161 -299 208 -102 37
-296 44 -408 14z m327 -225 c59 -18 155 -78 203 -128 93 -97 136 -216 127
-360 -4 -76 -10 -99 -42 -163 -91 -186 -294 -294 -493 -265 -177 27 -318 139
-382 306 -19 48 -23 80 -24 160 0 90 3 107 32 175 97 228 343 345 579 275z"/>
<path d="M4630 8109 c-153 -30 -341 -172 -449 -339 -123 -189 -281 -587 -415
-1040 -57 -194 -134 -548 -166 -765 -20 -138 -24 -378 -9 -525 20 -191 16
-260 -24 -475 -43 -228 -96 -446 -172 -695 -62 -204 -64 -208 -305 -590 -64
-102 -189 -300 -277 -440 -88 -140 -203 -318 -255 -395 -165 -242 -201 -341
-181 -487 14 -97 54 -179 122 -250 l56 -57 -343 -3 -344 -3 -24 -28 c-26 -30
-32 -83 -14 -118 29 -52 -193 -49 3295 -49 2357 0 3232 3 3248 11 35 18 57 51
57 89 0 38 -22 71 -57 89 -16 8 -325 11 -1096 11 l-1075 0 58 59 c115 118 149
253 105 414 -4 12 -98 299 -210 637 -112 338 -224 680 -250 760 -54 167 -102
272 -211 455 -42 72 -113 191 -157 265 -92 156 -175 287 -334 527 -62 95 -120
191 -129 215 -14 39 -14 91 1 158 2 8 16 74 31 145 15 72 29 132 30 133 1 2
28 -6 59 -17 31 -12 89 -24 129 -27 86 -8 150 5 367 75 85 27 199 63 254 79
510 155 488 146 562 220 67 67 105 149 111 238 4 61 1 78 -22 126 -50 105
-169 190 -286 204 -57 6 -217 -25 -568 -113 -79 -19 -145 -34 -146 -32 -2 2
-45 209 -95 459 -52 259 -105 494 -122 545 -100 291 -265 475 -474 530 -64 16
-201 18 -275 4z m284 -248 c117 -57 207 -179 274 -371 16 -47 48 -168 71 -270
22 -102 54 -243 71 -315 17 -71 49 -220 70 -329 22 -109 46 -209 55 -222 8
-13 27 -27 41 -30 26 -7 44 -2 249 60 224 69 519 146 558 146 108 0 158 -106
94 -201 -58 -87 -102 -104 -642 -257 -285 -80 -317 -87 -400 -87 -78 0 -97 4
-147 28 -104 51 -193 177 -212 302 -25 157 -164 723 -183 746 -23 27 -70 31
-112 9 -21 -10 -41 -26 -45 -35 -18 -48 1 -146 125 -630 65 -257 92 -334 143
-405 28 -40 31 -50 25 -85 -17 -89 -61 -321 -65 -340 -3 -11 -6 -60 -6 -110
-2 -118 17 -163 195 -453 195 -317 429 -709 497 -832 78 -141 109 -224 320
-865 99 -302 203 -613 230 -690 43 -123 49 -150 50 -221 0 -76 -2 -85 -32
-130 -48 -72 -127 -109 -228 -109 -64 0 -83 4 -128 29 -61 34 -110 95 -142
176 -12 30 -65 177 -117 325 -149 424 -390 1062 -434 1149 -61 120 -521 804
-597 889 -28 30 -41 37 -72 37 -66 0 -76 -18 -120 -195 -45 -188 -135 -503
-180 -630 -55 -156 -159 -336 -474 -820 -40 -60 -119 -183 -176 -273 -356
-552 -394 -603 -502 -657 -82 -40 -111 -43 -202 -15 -105 33 -161 95 -186 206
-22 99 -1 148 186 421 55 81 170 258 254 393 84 135 225 354 312 487 164 251
201 319 236 438 37 122 180 700 198 791 9 49 18 98 20 109 25 111 26 139 10
292 -18 180 -21 455 -5 570 26 198 83 455 169 773 65 238 89 309 167 510 116
293 202 455 304 565 145 157 325 204 483 126z m-369 -3551 c38 -52 108 -147
155 -210 200 -264 229 -320 362 -705 38 -110 87 -249 108 -310 22 -60 89 -254
150 -430 128 -367 169 -458 246 -544 l56 -61 -1254 1 c-1162 0 -1251 1 -1228
16 42 28 138 133 184 202 52 78 412 632 643 990 322 497 330 514 439 933 32
125 61 224 65 220 4 -4 37 -50 74 -102z"/>
<path d="M6958 7247 c-37 -22 -220 -177 -380 -320 -49 -44 -88 -87 -88 -97 0
-10 17 -33 38 -50 20 -18 63 -57 95 -86 32 -30 64 -54 71 -54 17 0 471 412
479 435 22 54 -1 125 -53 169 -41 34 -109 36 -162 3z"/>
</g>
</svg>
